<svg xmlns="http://www.w3.org/2000/svg" xmlns:xlink="http://www.w3.org/1999/xlink" version="1.1" x="0px" y="0px" viewBox="0 0 100 125" style="enable-background:new 0 0 100 100;" xml:space="preserve"><g><g><path d="M80.7,82.8H19.3c-0.6,0-1-0.4-1-1V48.5c0-15,10.6-28,25.3-31.1c4.2-0.9,8.7-0.9,13,0    c6.1,1.3,11.6,4.2,16,8.6c6,6,9.3,14,9.3,22.4v33.3C81.7,82.3,81.3,82.8,80.7,82.8z M20.3,80.8h59.5V48.5c0-7.9-3.1-15.4-8.7-21    c-4.1-4.1-9.3-6.9-15-8.1c-4-0.8-8.2-0.8-12.2,0c-13.7,2.8-23.7,15.1-23.7,29.1V80.8z"/></g><g><path d="M56.3,19.4c-0.1,0-0.1,0-0.2,0c-4-0.8-8.2-0.8-12.2,0c-0.3,0.1-0.6,0-0.8-0.2c-0.2-0.2-0.4-0.5-0.4-0.8    v-3.8c0-4,3.3-7.3,7.3-7.3c1.9,0,3.8,0.8,5.1,2.1c1.4,1.4,2.1,3.2,2.1,5.2v3.8c0,0.3-0.1,0.6-0.4,0.8    C56.7,19.3,56.5,19.4,56.3,19.4z M50,9.3c-2.9,0-5.3,2.4-5.3,5.3v2.6c3.5-0.6,7.1-0.6,10.6,0v-2.6c0-1.4-0.5-2.7-1.5-3.7    C52.7,9.9,51.4,9.3,50,9.3z"/></g><g><path d="M50,92.7c-5,0-9-4.1-9-9v-1.8c0-0.6,0.4-1,1-1H58c0.6,0,1,0.4,1,1v1.8C59,88.6,55,92.7,50,92.7z M43,82.8    v0.8c0,3.9,3.2,7,7,7c3.9,0,7-3.2,7-7v-0.8H43z"/></g></g></svg>